# xmcd
#
# Track frame offsets:
#	150
#	12277
#	26412
#	37615
#	50575
#	60932
#	78774
#	93288
#	106484
#	125806
#	139320
#	159191
#	187904
#	197237
#	207282
#
# Disc length: 2951 seconds
#
# Revision: 0
# Processed by: cddbd v1.4PL0 Copyright (c) Steve Scherf et al.
# Submitted via: dBpowerAMP V4.0
#
DISCID=b90b850f
DTITLE=The Road Agents - Rockin' Down The Road
DYEAR=2002
DGENRE=Blues
TTITLE0=Oldie But A Goodie
TTITLE1=Must Be My Baby
TTITLE2=Rockabilly Rhumba
TTITLE3=Prehistoric Blues
TTITLE4=Hippie Dance Party
TTITLE5=Hard-Hearted Woman
TTITLE6=Gumby Man Blues
TTITLE7=Bad Movies
TTITLE8=Clown Paint
TTITLE9=Goddess in Spandex
TTITLE10=Mighty Precipitation Blues
TTITLE11=Veil Of Loneliness
TTITLE12=I'm A Believer
TTITLE13=My Babe
TTITLE14=Paint It Black
EXTD=Produced by Fred Hopkins and Mitch Pumpian\nRecorded at Top Of The Hill Studios\nP.O. Box 295, Duvall, WA
EXTT0=
EXTT1=
EXTT2=
EXTT3=
EXTT4=
EXTT5=
EXTT6=
EXTT7=
EXTT8=
EXTT9=
EXTT10=
EXTT11=
EXTT12=
EXTT13=
EXTT14=
PLAYORDER=
